<?xml version="1.0" encoding="UTF-8" standalone="no"?>
<!-- Generator: Adobe Illustrator 17.0.1, SVG Export Plug-In . SVG Version: 6.00 Build 0)  -->

<svg
   xmlns:dc="http://purl.org/dc/elements/1.1/"
   xmlns:cc="http://creativecommons.org/ns#"
   xmlns:rdf="http://www.w3.org/1999/02/22-rdf-syntax-ns#"
   xmlns:svg="http://www.w3.org/2000/svg"
   xmlns="http://www.w3.org/2000/svg"
   xmlns:xlink="http://www.w3.org/1999/xlink"
   xmlns:sodipodi="http://sodipodi.sourceforge.net/DTD/sodipodi-0.dtd"
   xmlns:inkscape="http://www.inkscape.org/namespaces/inkscape"
   version="1.1"
   id="Layer_1"
   x="0px"
   y="0px"
   width="185px"
   height="188px"
   viewBox="0 0 185 188"
   enable-background="new 0 0 185 188"
   xml:space="preserve"
   inkscape:version="0.48.5 r10040"
   sodipodi:docname="logos.svg"
   inkscape:export-filename="/home/arkat/soft/zeppelin/img/sprites/logos.png"
   inkscape:export-xdpi="371.01065"
   inkscape:export-ydpi="371.01065"><metadata
     id="metadata4080"><rdf:RDF><cc:Work
         rdf:about=""><dc:format>image/svg+xml</dc:format><dc:type
           rdf:resource="http://purl.org/dc/dcmitype/StillImage" /><dc:title /></cc:Work></rdf:RDF></metadata><defs
     id="defs4078"><radialGradient
       gradientUnits="userSpaceOnUse"
       gradientTransform="matrix(0.498 0 0 0.498 172.2891 79.7388)"
       r="20.1137"
       cy="-60.055"
       cx="-310.583"
       id="SVGID_1_"><stop
         id="stop3897"
         style="stop-color:#FFCF4F"
         offset="0" /><stop
         id="stop3899"
         style="stop-color:#F4C236"
         offset="1" /></radialGradient><radialGradient
       gradientUnits="userSpaceOnUse"
       gradientTransform="matrix(0.498 0 0 0.498 172.2891 79.7388)"
       r="27.6582"
       cy="-70.2695"
       cx="-322.6347"
       id="SVGID_2_"><stop
         id="stop3904"
         style="stop-color:#08A960"
         offset="0" /><stop
         id="stop3906"
         style="stop-color:#07914B"
         offset="1" /></radialGradient><radialGradient
       gradientUnits="userSpaceOnUse"
       gradientTransform="matrix(0.498 0 0 0.498 172.2891 79.7388)"
       r="40.54"
       cy="-109.9511"
       cx="-313.1831"
       id="SVGID_3_"><stop
         id="stop3911"
         style="stop-color:#567FC0"
         offset="0" /><stop
         id="stop3913"
         style="stop-color:#557FC0"
         offset="1" /></radialGradient><radialGradient
       gradientUnits="userSpaceOnUse"
       gradientTransform="matrix(0.498 0 0 0.498 172.2891 79.7388)"
       r="33.0584"
       cy="-119.9164"
       cx="-301.1191"
       id="SVGID_4_"><stop
         id="stop3918"
         style="stop-color:#E14C40"
         offset="0" /><stop
         id="stop3920"
         style="stop-color:#CD392D"
         offset="1" /></radialGradient><radialGradient
       inkscape:collect="always"
       xlink:href="#SVGID_4_"
       id="radialGradient4901"
       gradientUnits="userSpaceOnUse"
       gradientTransform="matrix(0.498,0,0,0.498,172.2891,79.7388)"
       cx="-301.1191"
       cy="-119.9164"
       r="33.0584" /><radialGradient
       inkscape:collect="always"
       xlink:href="#SVGID_3_"
       id="radialGradient4904"
       gradientUnits="userSpaceOnUse"
       gradientTransform="matrix(0.498,0,0,0.498,172.2891,79.7388)"
       cx="-313.1831"
       cy="-109.9511"
       r="40.54" /><radialGradient
       inkscape:collect="always"
       xlink:href="#SVGID_2_"
       id="radialGradient4907"
       gradientUnits="userSpaceOnUse"
       gradientTransform="matrix(0.498,0,0,0.498,172.2891,79.7388)"
       cx="-322.6347"
       cy="-70.2695"
       r="27.6582" /><radialGradient
       inkscape:collect="always"
       xlink:href="#SVGID_1_"
       id="radialGradient4910"
       gradientUnits="userSpaceOnUse"
       gradientTransform="matrix(0.498,0,0,0.498,172.2891,79.7388)"
       cx="-310.583"
       cy="-60.055"
       r="20.1137" /><radialGradient
       gradientUnits="userSpaceOnUse"
       gradientTransform="matrix(0.498,0,0,0.498,172.2891,79.7388)"
       r="20.1137"
       cy="66.4552"
       cx="-310.583"
       id="SVGID_5_"><stop
         id="stop3973"
         style="stop-color:#CCCCCC"
         offset="0" /><stop
         id="stop3975"
         style="stop-color:#C0C0C0"
         offset="1" /></radialGradient><radialGradient
       gradientUnits="userSpaceOnUse"
       gradientTransform="matrix(0.498,0,0,0.498,172.2891,79.7388)"
       r="27.6582"
       cy="56.2407"
       cx="-322.6347"
       id="SVGID_6_"><stop
         id="stop3980"
         style="stop-color:#A0A0A0"
         offset="0" /><stop
         id="stop3982"
         style="stop-color:#7B7B7B"
         offset="1" /></radialGradient><radialGradient
       gradientUnits="userSpaceOnUse"
       gradientTransform="matrix(0.498,0,0,0.498,172.2891,79.7388)"
       r="40.54"
       cy="16.559"
       cx="-313.1831"
       id="SVGID_7_"><stop
         id="stop3987"
         style="stop-color:#848484"
         offset="0" /><stop
         id="stop3989"
         style="stop-color:#838383"
         offset="1" /></radialGradient><radialGradient
       gradientUnits="userSpaceOnUse"
       gradientTransform="matrix(0.498,0,0,0.498,172.2891,79.7388)"
       r="33.0584"
       cy="6.5938"
       cx="-301.1191"
       id="SVGID_8_"><stop
         id="stop3994"
         style="stop-color:#626262"
         offset="0" /><stop
         id="stop3996"
         style="stop-color:#474747"
         offset="1" /></radialGradient><radialGradient
       inkscape:collect="always"
       xlink:href="#SVGID_8_"
       id="radialGradient4995"
       gradientUnits="userSpaceOnUse"
       gradientTransform="matrix(0.498,0,0,0.498,172.2891,79.7388)"
       cx="-301.1191"
       cy="6.5938"
       r="33.0584" /><radialGradient
       inkscape:collect="always"
       xlink:href="#SVGID_7_"
       id="radialGradient4998"
       gradientUnits="userSpaceOnUse"
       gradientTransform="matrix(0.498,0,0,0.498,172.2891,79.7388)"
       cx="-313.1831"
       cy="16.559"
       r="40.54" /><radialGradient
       inkscape:collect="always"
       xlink:href="#SVGID_6_"
       id="radialGradient5001"
       gradientUnits="userSpaceOnUse"
       gradientTransform="matrix(0.498,0,0,0.498,172.2891,79.7388)"
       cx="-322.6347"
       cy="56.2407"
       r="27.6582" /><radialGradient
       inkscape:collect="always"
       xlink:href="#SVGID_5_"
       id="radialGradient5004"
       gradientUnits="userSpaceOnUse"
       gradientTransform="matrix(0.498,0,0,0.498,172.2891,79.7388)"
       cx="-310.583"
       cy="66.4552"
       r="20.1137" /><radialGradient
       gradientUnits="userSpaceOnUse"
       gradientTransform="matrix(0.498,0,0,0.498,172.2891,79.7388)"
       r="20.1137"
       cy="192.9653"
       cx="-310.265"
       id="SVGID_9_"><stop
         id="stop4049"
         style="stop-color:#FFCF4F"
         offset="0" /><stop
         id="stop4051"
         style="stop-color:#F4C236"
         offset="1" /></radialGradient><radialGradient
       gradientUnits="userSpaceOnUse"
       gradientTransform="matrix(0.498,0,0,0.498,172.2891,79.7388)"
       r="27.6582"
       cy="182.7508"
       cx="-322.3167"
       id="SVGID_10_"><stop
         id="stop4056"
         style="stop-color:#08A960"
         offset="0" /><stop
         id="stop4058"
         style="stop-color:#07914B"
         offset="1" /></radialGradient><radialGradient
       gradientUnits="userSpaceOnUse"
       gradientTransform="matrix(0.498,0,0,0.498,172.2891,79.7388)"
       r="40.54"
       cy="143.0691"
       cx="-312.8651"
       id="SVGID_11_"><stop
         id="stop4063"
         style="stop-color:#567FC0"
         offset="0" /><stop
         id="stop4065"
         style="stop-color:#557FC0"
         offset="1" /></radialGradient><radialGradient
       gradientUnits="userSpaceOnUse"
       gradientTransform="matrix(0.498,0,0,0.498,172.2891,79.7388)"
       r="33.0584"
       cy="133.1039"
       cx="-300.8011"
       id="SVGID_12_"><stop
         id="stop4070"
         style="stop-color:#E14C40"
         offset="0" /><stop
         id="stop4072"
         style="stop-color:#CD392D"
         offset="1" /></radialGradient><radialGradient
       inkscape:collect="always"
       xlink:href="#SVGID_12_"
       id="radialGradient5074"
       gradientUnits="userSpaceOnUse"
       gradientTransform="matrix(0.498,0,0,0.498,172.2891,79.7388)"
       cx="-300.8011"
       cy="133.1039"
       r="33.0584" /><radialGradient
       inkscape:collect="always"
       xlink:href="#SVGID_11_"
       id="radialGradient5077"
       gradientUnits="userSpaceOnUse"
       gradientTransform="matrix(0.498,0,0,0.498,172.2891,79.7388)"
       cx="-312.8651"
       cy="143.0691"
       r="40.54" /><radialGradient
       inkscape:collect="always"
       xlink:href="#SVGID_10_"
       id="radialGradient5080"
       gradientUnits="userSpaceOnUse"
       gradientTransform="matrix(0.498,0,0,0.498,172.2891,79.7388)"
       cx="-322.3167"
       cy="182.7508"
       r="27.6582" /><radialGradient
       inkscape:collect="always"
       xlink:href="#SVGID_9_"
       id="radialGradient5083"
       gradientUnits="userSpaceOnUse"
       gradientTransform="matrix(0.498,0,0,0.498,172.2891,79.7388)"
       cx="-310.265"
       cy="192.9653"
       r="20.1137" /></defs><sodipodi:namedview
     pagecolor="#ffffff"
     bordercolor="#666666"
     borderopacity="1"
     objecttolerance="10"
     gridtolerance="10"
     guidetolerance="10"
     inkscape:pageopacity="0"
     inkscape:pageshadow="2"
     inkscape:window-width="1360"
     inkscape:window-height="721"
     id="namedview4076"
     showgrid="false"
     showguides="false"
     inkscape:zoom="2.7340426"
     inkscape:cx="41.110513"
     inkscape:cy="94"
     inkscape:window-x="-3"
     inkscape:window-y="-3"
     inkscape:window-maximized="1"
     inkscape:current-layer="Layer_1"><inkscape:grid
       type="xygrid"
       id="grid4955" /></sodipodi:namedview><path
     d="m 115.912,17.967 c 0,2.676 -0.731,4.738 -2.193,6.186 -1.462,1.448 -3.518,2.171 -6.166,2.171 l -5.148,0 0,-16.034 5.507,0 c 2.554,0 4.526,0.658 5.916,1.974 1.389,1.316 2.084,3.217 2.084,5.703 z m -4.462,0.154 c 0,-1.469 -0.289,-2.559 -0.866,-3.268 -0.577,-0.709 -1.453,-1.064 -2.628,-1.064 l -1.251,0 0,8.982 0.958,0 c 1.306,0 2.264,-0.382 2.874,-1.146 0.61,-0.764 0.913,-1.932 0.913,-3.504 z"
     id="path3852"
     inkscape:connector-curvature="0"
     style="fill:#4e4e4e"
     sodipodi:nodetypes="sssccscssssccsss" /><path
     d="m 123.129,26.544 c -2.053,0 -3.646,-0.55 -4.783,-1.65 -1.136,-1.101 -1.704,-2.667 -1.704,-4.7 0,-2.099 0.526,-3.709 1.578,-4.832 1.053,-1.122 2.555,-1.684 4.506,-1.684 1.857,0 3.293,0.488 4.305,1.464 1.012,0.976 1.52,2.382 1.52,4.217 l 0,1.908 -7.609,0 c 0.029,0.695 0.281,1.239 0.758,1.634 0.475,0.395 1.121,0.592 1.941,0.592 0.748,0 1.436,-0.071 2.063,-0.214 0.629,-0.143 1.309,-0.386 2.041,-0.729 l 0,3.082 c -0.668,0.344 -1.357,0.581 -2.068,0.713 -0.712,0.133 -1.56,0.199 -2.548,0.199 z m -0.25,-9.948 c -0.5,0 -0.92,0.159 -1.256,0.477 -0.338,0.318 -0.537,0.817 -0.594,1.497 l 3.656,0 c -0.014,-0.599 -0.184,-1.078 -0.506,-1.437 -0.322,-0.359 -0.755,-0.537 -1.3,-0.537 z"
     id="path3854"
     inkscape:connector-curvature="0"
     style="fill:#4e4e4e"
     sodipodi:nodetypes="scscssscccsccccsscccss" /><path
     d="m 132.851,26.325 -4.702,-12.426 4.44,0 2.09,7.348 c 0.008,0.037 0.022,0.099 0.044,0.187 0.022,0.088 0.043,0.192 0.065,0.313 0.021,0.121 0.041,0.249 0.06,0.384 0.018,0.136 0.027,0.262 0.027,0.378 l 0.076,0 c 0,-0.38 0.065,-0.793 0.195,-1.239 l 2.188,-7.37 4.43,0 -4.702,12.426 -4.211,0 z"
     id="path3856"
     inkscape:connector-curvature="0"
     style="fill:#4e4e4e"
     sodipodi:nodetypes="ccccscccccccccc" /><path
     d="m 146.381,26.325 -4.234,0 0,-16.035 9.404,0 0,3.477 -5.17,0 0,3.06 4.767,0 0,3.477 -4.767,0 z"
     id="path3858"
     inkscape:connector-curvature="0"
     style="fill:#4e4e4e"
     sodipodi:nodetypes="ccccccccccc" /><path
     d="m 158.528,26.544 c -2.054,0 -3.647,-0.55 -4.783,-1.65 -1.136,-1.1 -1.703,-2.667 -1.703,-4.7 0,-2.099 0.525,-3.709 1.578,-4.832 1.052,-1.122 2.554,-1.684 4.506,-1.684 1.857,0 3.292,0.488 4.305,1.464 1.012,0.976 1.519,2.382 1.519,4.217 l 0,1.908 -7.608,0 c 0.029,0.695 0.281,1.239 0.757,1.634 0.475,0.395 1.122,0.592 1.942,0.592 0.747,0 1.435,-0.071 2.063,-0.214 0.628,-0.143 1.308,-0.386 2.041,-0.729 l 0,3.082 c -0.668,0.344 -1.357,0.581 -2.068,0.713 -0.713,0.133 -1.561,0.199 -2.549,0.199 z m -0.25,-9.948 c -0.501,0 -0.92,0.159 -1.257,0.477 -0.338,0.318 -0.536,0.817 -0.594,1.497 l 3.657,0 c -0.015,-0.599 -0.184,-1.078 -0.506,-1.437 -0.322,-0.358 -0.756,-0.537 -1.3,-0.537 z"
     id="path3860"
     inkscape:connector-curvature="0"
     style="fill:#4e4e4e"
     sodipodi:nodetypes="ssscscscccsscccssccccs" /><path
     d="m 174.541,22.508 c 0,1.331 -0.45,2.336 -1.35,3.016 -0.9,0.68 -2.191,1.02 -3.875,1.02 -0.914,0 -1.709,-0.049 -2.384,-0.148 -0.675,-0.099 -1.364,-0.28 -2.067,-0.543 l 0,-3.433 c 0.66,0.292 1.384,0.534 2.171,0.724 0.787,0.19 1.489,0.285 2.106,0.285 0.921,0 1.382,-0.212 1.382,-0.636 0,-0.219 -0.129,-0.415 -0.386,-0.586 -0.258,-0.172 -1.007,-0.506 -2.248,-1.004 -1.132,-0.468 -1.923,-1 -2.373,-1.596 -0.449,-0.596 -0.675,-1.351 -0.675,-2.265 0,-1.155 0.442,-2.055 1.328,-2.698 0.885,-0.644 2.137,-0.965 3.755,-0.965 0.813,0 1.576,0.09 2.291,0.269 0.715,0.179 1.457,0.44 2.227,0.784 l -1.154,2.764 c -0.565,-0.256 -1.164,-0.473 -1.796,-0.652 -0.631,-0.179 -1.146,-0.269 -1.546,-0.269 -0.696,0 -1.044,0.172 -1.044,0.516 0,0.212 0.121,0.393 0.364,0.543 0.243,0.15 0.945,0.455 2.106,0.916 0.863,0.358 1.507,0.709 1.932,1.053 0.425,0.344 0.736,0.748 0.936,1.212 0.2,0.463 0.3,1.028 0.3,1.693 z"
     id="path3862"
     inkscape:connector-curvature="0"
     style="fill:#4e4e4e"
     sodipodi:nodetypes="ssssccssscccscsscccssscscs" /><path
     d="m 181.605,23.155 c 0.573,0 1.259,-0.143 2.058,-0.428 l 0,3.126 c -0.573,0.249 -1.119,0.426 -1.639,0.532 -0.519,0.105 -1.126,0.159 -1.822,0.159 -1.43,0 -2.46,-0.353 -3.092,-1.058 -0.631,-0.706 -0.946,-1.79 -0.946,-3.252 l 0,-5.122 -1.491,0 0,-1.744 1.894,-1.349 1.1,-2.61 2.786,0 0,2.49 3.025,0 0,3.213 -3.025,0 0,4.837 c -0.001,0.804 0.384,1.206 1.152,1.206 z"
     id="path3864"
     inkscape:connector-curvature="0"
     style="fill:#4e4e4e"
     sodipodi:nodetypes="scccscscccccccccccs" /><path
     d="m 55.571,17.313 6.922,0 0,8.644 c -1.879,0.644 -3.945,0.965 -6.198,0.965 -2.472,0 -4.382,-0.716 -5.731,-2.15 -1.349,-1.433 -2.024,-3.477 -2.024,-6.132 0,-2.589 0.739,-4.603 2.216,-6.044 1.477,-1.44 3.547,-2.161 6.208,-2.161 1.009,0 1.962,0.095 2.858,0.285 0.896,0.19 1.676,0.432 2.342,0.724 l -1.371,3.4 c -1.156,-0.57 -2.424,-0.855 -3.807,-0.855 -1.265,0 -2.243,0.412 -2.934,1.234 -0.691,0.823 -1.037,1.999 -1.037,3.527 0,1.499 0.313,2.642 0.938,3.428 0.625,0.786 1.526,1.179 2.704,1.179 0.644,0 1.236,-0.062 1.777,-0.187 l 0,-2.512 -2.863,0 z"
     id="path3890"
     inkscape:connector-curvature="0"
     style="fill:#4e4e4e"
     sodipodi:nodetypes="cccscscssccscssscccc" /><path
     d="m 78.026,18.344 c 0,2.676 -0.737,4.739 -2.21,6.187 -1.473,1.448 -3.545,2.172 -6.214,2.172 l -5.188,0 0,-16.037 5.551,0 c 2.574,0 4.561,0.658 5.961,1.975 1.4,1.317 2.1,3.217 2.1,5.703 z m -4.497,0.154 c 0,-1.47 -0.291,-2.56 -0.872,-3.269 -0.582,-0.709 -1.464,-1.064 -2.649,-1.064 l -1.262,0 0,8.983 0.965,0 c 1.316,0 2.282,-0.382 2.896,-1.146 0.614,-0.764 0.922,-1.932 0.922,-3.504 z"
     id="path3892"
     inkscape:connector-curvature="0"
     style="fill:#4e4e4e"
     sodipodi:nodetypes="sssccsssscsccsss" /><path
     d="m 85.991,17.313 6.922,0 0,8.644 c -1.879,0.644 -3.945,0.965 -6.198,0.965 -2.472,0 -4.382,-0.716 -5.731,-2.15 -1.349,-1.433 -2.024,-3.477 -2.024,-6.132 0,-2.589 0.739,-4.603 2.216,-6.044 1.477,-1.44 3.547,-2.161 6.208,-2.161 1.009,0 1.962,0.095 2.858,0.285 0.896,0.19 1.676,0.432 2.342,0.724 l -1.371,3.4 c -1.156,-0.57 -2.424,-0.855 -3.807,-0.855 -1.265,0 -2.243,0.412 -2.934,1.234 -0.691,0.823 -1.037,1.999 -1.037,3.527 0,1.499 0.313,2.642 0.938,3.428 0.625,0.786 1.526,1.179 2.704,1.179 0.644,0 1.236,-0.062 1.777,-0.187 l 0,-2.512 -2.863,0 z"
     id="path3894"
     inkscape:connector-curvature="0"
     style="fill:#4e4e4e"
     sodipodi:nodetypes="cccscscssccscssscccc" /><path
     inkscape:connector-curvature="0"
     style="fill:url(#radialGradient4910)"
     id="path3901"
     d="m 8.91,61 6.791,0 c 1.607,0 3.604,-1.128 4.432,-2.511 l 5.72,-9.519 c 0.677,-1.396 0.653,-3.426 -0.119,-4.713 l -3.378,-5.592 z"
     sodipodi:nodetypes="csccccc" /><path
     inkscape:connector-curvature="0"
     style="fill:url(#radialGradient4907)"
     id="path3908"
     d="M 16.209,33.514 1.108,58.763 C 0.524,60.011 1.131,61 2.629,61 L 8.91,61 22.356,38.665 16.21,28.492 c 0.829,1.378 0.829,3.638 -0.001,5.022"
     sodipodi:nodetypes="ccscccc" /><path
     inkscape:connector-curvature="0"
     style="fill:url(#radialGradient4904)"
     id="path3915"
     d="M 2.629,1 C 1.015,1 0.375,2.133 1.205,3.511 l 24.529,40.745 c 0.772,1.288 0.795,3.317 0.119,4.713 L 31.816,39.044 8.914,1 z"
     sodipodi:nodetypes="scccccs" /><path
     inkscape:connector-curvature="0"
     style="fill:url(#radialGradient4901)"
     id="path3922"
     d="m 8.914,1 22.903,38.045 3.321,-5.53 c 0.83,-1.385 0.83,-3.645 0,-5.023 L 20.133,3.511 C 19.305,2.133 17.308,1 15.701,1 z"
     sodipodi:nodetypes="cccccsc" /><path
     d="m 115.912,80.967 c 0,2.677 -0.731,4.738 -2.193,6.187 -1.462,1.447 -3.518,2.171 -6.166,2.171 l -5.148,0 0,-16.035 5.507,0 c 2.554,0 4.526,0.657 5.916,1.974 1.39,1.317 2.084,3.217 2.084,5.703 z m -4.462,0.153 c 0,-1.469 -0.289,-2.559 -0.866,-3.268 -0.577,-0.71 -1.453,-1.064 -2.628,-1.064 l -1.251,0 0,8.982 0.958,0 c 1.306,0 2.264,-0.382 2.874,-1.146 0.608,-0.764 0.913,-1.932 0.913,-3.504 z"
     id="path3928"
     inkscape:connector-curvature="0"
     style="fill:#4e4e4e"
     sodipodi:nodetypes="scsccsssscsccscs" /><path
     d="m 123.129,89.544 c -2.053,0 -3.646,-0.55 -4.783,-1.65 -1.136,-1.101 -1.704,-2.667 -1.704,-4.7 0,-2.099 0.526,-3.709 1.578,-4.831 1.053,-1.122 2.555,-1.684 4.506,-1.684 1.857,0 3.293,0.488 4.305,1.464 1.012,0.977 1.52,2.382 1.52,4.218 l 0,1.908 -7.609,0 c 0.029,0.694 0.281,1.239 0.758,1.634 0.475,0.396 1.121,0.593 1.941,0.593 0.748,0 1.436,-0.071 2.063,-0.214 0.629,-0.143 1.309,-0.386 2.041,-0.729 l 0,3.082 c -0.668,0.344 -1.357,0.581 -2.068,0.713 -0.712,0.13 -1.56,0.196 -2.548,0.196 z m -0.25,-9.948 c -0.5,0 -0.92,0.159 -1.256,0.478 -0.338,0.318 -0.537,0.817 -0.594,1.497 l 3.656,0 c -0.014,-0.6 -0.184,-1.078 -0.506,-1.437 -0.322,-0.359 -0.755,-0.538 -1.3,-0.538 z"
     id="path3930"
     inkscape:connector-curvature="0"
     style="fill:#4e4e4e"
     sodipodi:nodetypes="scscscscccsccccsscccss" /><path
     d="m 132.851,89.324 -4.702,-12.426 4.44,0 2.09,7.348 c 0.008,0.037 0.022,0.099 0.044,0.187 0.022,0.088 0.043,0.192 0.065,0.313 0.021,0.121 0.041,0.249 0.06,0.384 0.018,0.136 0.027,0.262 0.027,0.379 l 0.076,0 c 0,-0.38 0.065,-0.793 0.195,-1.239 l 2.188,-7.37 4.43,0 -4.702,12.426 -4.211,0 z"
     id="path3932"
     inkscape:connector-curvature="0"
     style="fill:#4e4e4e"
     sodipodi:nodetypes="ccccscccccccccc" /><path
     d="m 146.381,89.324 -4.234,0 0,-16.034 9.404,0 0,3.477 -5.17,0 0,3.06 4.767,0 0,3.477 -4.767,0 z"
     id="path3934"
     inkscape:connector-curvature="0"
     style="fill:#4e4e4e"
     sodipodi:nodetypes="ccccccccccc" /><path
     d="m 158.528,89.544 c -2.054,0 -3.647,-0.55 -4.783,-1.65 -1.136,-1.1 -1.703,-2.667 -1.703,-4.7 0,-2.099 0.525,-3.709 1.578,-4.831 1.052,-1.122 2.554,-1.684 4.506,-1.684 1.857,0 3.292,0.488 4.305,1.464 1.012,0.977 1.519,2.382 1.519,4.218 l 0,1.908 -7.608,0 c 0.029,0.694 0.281,1.239 0.757,1.634 0.475,0.396 1.122,0.593 1.942,0.593 0.747,0 1.435,-0.071 2.063,-0.214 0.628,-0.143 1.308,-0.386 2.041,-0.729 l 0,3.082 c -0.668,0.344 -1.357,0.581 -2.068,0.713 -0.713,0.13 -1.561,0.196 -2.549,0.196 z m -0.25,-9.948 c -0.501,0 -0.92,0.159 -1.257,0.478 -0.338,0.318 -0.536,0.817 -0.594,1.497 l 3.657,0 c -0.015,-0.6 -0.184,-1.078 -0.506,-1.437 -0.322,-0.359 -0.756,-0.538 -1.3,-0.538 z"
     id="path3936"
     inkscape:connector-curvature="0"
     style="fill:#4e4e4e"
     sodipodi:nodetypes="ssscscscccsscccsscccss" /><path
     d="m 174.541,85.508 c 0,1.331 -0.45,2.336 -1.35,3.016 -0.9,0.681 -2.191,1.021 -3.875,1.021 -0.914,0 -1.709,-0.05 -2.384,-0.148 -0.675,-0.098 -1.364,-0.279 -2.067,-0.543 l 0,-3.434 c 0.66,0.293 1.384,0.534 2.171,0.724 0.787,0.19 1.489,0.285 2.106,0.285 0.921,0 1.382,-0.212 1.382,-0.636 0,-0.22 -0.129,-0.415 -0.386,-0.587 -0.258,-0.172 -1.007,-0.506 -2.248,-1.004 -1.132,-0.468 -1.923,-0.999 -2.373,-1.596 -0.449,-0.596 -0.675,-1.351 -0.675,-2.265 0,-1.155 0.442,-2.055 1.328,-2.698 0.885,-0.644 2.137,-0.965 3.755,-0.965 0.813,0 1.576,0.09 2.291,0.269 0.715,0.18 1.457,0.44 2.227,0.784 l -1.154,2.764 c -0.565,-0.256 -1.164,-0.473 -1.796,-0.652 -0.631,-0.179 -1.146,-0.269 -1.546,-0.269 -0.696,0 -1.044,0.172 -1.044,0.516 0,0.212 0.121,0.393 0.364,0.543 0.243,0.149 0.945,0.455 2.106,0.915 0.863,0.358 1.507,0.71 1.932,1.054 0.425,0.344 0.736,0.747 0.936,1.212 0.2,0.463 0.3,1.029 0.3,1.694 z"
     id="path3938"
     inkscape:connector-curvature="0"
     style="fill:#4e4e4e"
     sodipodi:nodetypes="scssccssscccscsccccssccscs" /><path
     d="m 181.605,86.154 c 0.573,0 1.259,-0.143 2.058,-0.428 l 0,3.126 c -0.573,0.249 -1.119,0.427 -1.639,0.532 -0.519,0.105 -1.126,0.159 -1.822,0.159 -1.43,0 -2.46,-0.353 -3.092,-1.059 -0.631,-0.705 -0.946,-1.789 -0.946,-3.252 l 0,-5.122 -1.491,0 0,-1.743 1.894,-1.35 1.1,-2.61 2.786,0 0,2.49 3.025,0 0,3.213 -3.025,0 0,4.837 c -0.001,0.806 0.384,1.207 1.152,1.207 z"
     id="path3940"
     inkscape:connector-curvature="0"
     style="fill:#4e4e4e"
     sodipodi:nodetypes="scccscscccccccccccs" /><path
     d="m 55.571,80.313 6.922,0 0,8.644 c -1.879,0.644 -3.945,0.966 -6.198,0.966 -2.472,0 -4.382,-0.717 -5.731,-2.15 -1.349,-1.433 -2.024,-3.477 -2.024,-6.132 0,-2.589 0.739,-4.603 2.216,-6.044 1.477,-1.44 3.547,-2.161 6.208,-2.161 1.009,0 1.962,0.096 2.858,0.285 0.896,0.19 1.676,0.432 2.342,0.725 l -1.371,3.4 c -1.156,-0.57 -2.424,-0.855 -3.807,-0.855 -1.265,0 -2.243,0.411 -2.934,1.233 -0.691,0.823 -1.037,1.999 -1.037,3.527 0,1.499 0.313,2.642 0.938,3.428 0.625,0.786 1.526,1.179 2.704,1.179 0.644,0 1.236,-0.062 1.777,-0.187 l 0,-2.512 -2.863,0 z"
     id="path3966"
     inkscape:connector-curvature="0"
     style="fill:#4e4e4e"
     sodipodi:nodetypes="cccssscscccscssscccc" /><path
     d="m 78.026,81.344 c 0,2.677 -0.737,4.739 -2.21,6.187 -1.474,1.448 -3.545,2.172 -6.214,2.172 l -5.188,0 0,-16.038 5.551,0 c 2.574,0 4.561,0.658 5.961,1.975 1.4,1.317 2.1,3.217 2.1,5.704 z m -4.497,0.153 c 0,-1.47 -0.291,-2.56 -0.872,-3.269 -0.581,-0.709 -1.464,-1.063 -2.649,-1.063 l -1.262,0 0,8.983 0.965,0 c 1.316,0 2.282,-0.382 2.896,-1.146 0.615,-0.764 0.922,-1.933 0.922,-3.505 z"
     id="path3968"
     inkscape:connector-curvature="0"
     style="fill:#4e4e4e"
     sodipodi:nodetypes="scsccssssssccscs" /><path
     d="m 85.991,80.313 6.922,0 0,8.644 c -1.879,0.644 -3.945,0.966 -6.198,0.966 -2.472,0 -4.382,-0.717 -5.731,-2.15 -1.349,-1.433 -2.024,-3.477 -2.024,-6.132 0,-2.589 0.739,-4.603 2.216,-6.044 1.477,-1.44 3.547,-2.161 6.208,-2.161 1.009,0 1.962,0.096 2.858,0.285 0.896,0.19 1.676,0.432 2.342,0.725 l -1.371,3.4 c -1.156,-0.57 -2.424,-0.855 -3.807,-0.855 -1.265,0 -2.243,0.411 -2.934,1.233 -0.691,0.823 -1.037,1.999 -1.037,3.527 0,1.499 0.313,2.642 0.938,3.428 0.625,0.786 1.526,1.179 2.704,1.179 0.644,0 1.236,-0.062 1.777,-0.187 l 0,-2.512 -2.863,0 z"
     id="path3970"
     inkscape:connector-curvature="0"
     style="fill:#4e4e4e"
     sodipodi:nodetypes="cccssscscccscssscccc" /><path
     inkscape:connector-curvature="0"
     style="fill:url(#radialGradient5004)"
     id="path3977"
     d="m 8.91,124 6.791,0 c 1.607,0 3.604,-1.128 4.432,-2.511 l 5.72,-9.519 c 0.677,-1.396 0.653,-3.426 -0.119,-4.713 l -3.378,-5.592 z"
     sodipodi:nodetypes="csccccc" /><path
     inkscape:connector-curvature="0"
     style="fill:url(#radialGradient5001)"
     id="path3984"
     d="M 16.209,96.514 1.108,121.763 C 0.524,123.011 1.131,124 2.629,124 L 8.91,124 22.356,101.665 16.21,91.492 c 0.829,1.378 0.829,3.638 -0.001,5.022"
     sodipodi:nodetypes="ccscccc" /><path
     inkscape:connector-curvature="0"
     style="fill:url(#radialGradient4998)"
     id="path3991"
     d="m 2.629,64 c -1.613,0 -2.254,1.133 -1.424,2.511 l 24.529,40.745 c 0.772,1.288 0.795,3.317 0.119,4.713 L 31.816,102.044 8.914,64 z"
     sodipodi:nodetypes="scccccs" /><path
     inkscape:connector-curvature="0"
     style="fill:url(#radialGradient4995)"
     id="path3998"
     d="m 8.914,64 22.903,38.045 3.321,-5.53 c 0.83,-1.385 0.83,-3.645 0,-5.023 L 20.134,66.512 C 19.305,65.133 17.308,64 15.701,64 z"
     sodipodi:nodetypes="cccccsc" /><path
     d="m 116.071,143.967 c 0,2.676 -0.731,4.738 -2.193,6.186 -1.462,1.448 -3.518,2.172 -6.166,2.172 h -5.148 V 136.29 h 5.507 c 2.554,0 4.526,0.658 5.916,1.975 1.39,1.317 2.084,3.215 2.084,5.702 z m -4.463,0.153 c 0,-1.47 -0.289,-2.559 -0.866,-3.269 -0.577,-0.709 -1.453,-1.063 -2.628,-1.063 h -1.251 v 8.982 h 0.958 c 1.306,0 2.264,-0.382 2.874,-1.146 0.608,-0.764 0.913,-1.932 0.913,-3.504 z"
     id="path4004"
     inkscape:connector-curvature="0"
     style="fill:#e6e6e5" /><path
     d="m 123.287,152.544 c -2.053,0 -3.646,-0.551 -4.782,-1.651 -1.136,-1.1 -1.704,-2.667 -1.704,-4.699 0,-2.099 0.526,-3.709 1.578,-4.831 1.052,-1.123 2.554,-1.684 4.505,-1.684 1.857,0 3.293,0.487 4.305,1.464 1.012,0.977 1.52,2.382 1.52,4.217 v 1.909 H 121.1 c 0.029,0.694 0.281,1.239 0.758,1.634 0.475,0.395 1.121,0.592 1.941,0.592 0.748,0 1.436,-0.071 2.063,-0.214 0.629,-0.143 1.309,-0.385 2.041,-0.729 v 3.081 c -0.668,0.344 -1.357,0.582 -2.068,0.713 -0.712,0.132 -1.56,0.198 -2.548,0.198 z m -0.25,-9.948 c -0.5,0 -0.92,0.159 -1.256,0.478 -0.338,0.317 -0.537,0.816 -0.594,1.497 h 3.656 c -0.014,-0.6 -0.184,-1.079 -0.506,-1.438 -0.321,-0.358 -0.755,-0.537 -1.3,-0.537 z"
     id="path4006"
     inkscape:connector-curvature="0"
     style="fill:#e6e6e5" /><path
     d="m 133.009,152.324 -4.702,-12.427 h 4.44 l 2.09,7.349 c 0.008,0.037 0.022,0.099 0.044,0.187 0.022,0.088 0.043,0.192 0.065,0.313 0.021,0.121 0.041,0.249 0.06,0.384 0.018,0.136 0.027,0.262 0.027,0.379 h 0.076 c 0,-0.381 0.065,-0.794 0.195,-1.239 l 2.188,-7.371 h 4.43 l -4.702,12.427 h -4.211 z"
     id="path4008"
     inkscape:connector-curvature="0"
     style="fill:#e6e6e5" /><path
     d="m 146.539,152.324 h -4.234 v -16.035 h 9.404 v 3.478 h -5.17 v 3.06 h 4.767 v 3.477 h -4.767 v 6.02 z"
     id="path4010"
     inkscape:connector-curvature="0"
     style="fill:#e6e6e5" /><path
     d="m 158.687,152.544 c -2.054,0 -3.647,-0.551 -4.783,-1.651 -1.136,-1.1 -1.703,-2.667 -1.703,-4.699 0,-2.099 0.525,-3.709 1.578,-4.831 1.052,-1.123 2.554,-1.684 4.506,-1.684 1.857,0 3.292,0.487 4.305,1.464 1.012,0.977 1.519,2.382 1.519,4.217 v 1.909 h -7.608 c 0.029,0.694 0.281,1.239 0.757,1.634 0.475,0.395 1.122,0.592 1.942,0.592 0.747,0 1.435,-0.071 2.063,-0.214 0.628,-0.143 1.308,-0.385 2.041,-0.729 v 3.081 c -0.668,0.344 -1.357,0.582 -2.068,0.713 -0.714,0.132 -1.562,0.198 -2.549,0.198 z m -0.25,-9.948 c -0.501,0 -0.92,0.159 -1.257,0.478 -0.338,0.317 -0.536,0.816 -0.594,1.497 h 3.657 c -0.015,-0.6 -0.184,-1.079 -0.506,-1.438 -0.323,-0.358 -0.757,-0.537 -1.3,-0.537 z"
     id="path4012"
     inkscape:connector-curvature="0"
     style="fill:#e6e6e5" /><path
     d="m 174.699,148.508 c 0,1.33 -0.45,2.336 -1.35,3.016 -0.9,0.68 -2.191,1.021 -3.875,1.021 -0.914,0 -1.709,-0.05 -2.384,-0.148 -0.675,-0.098 -1.364,-0.279 -2.067,-0.543 v -3.433 c 0.66,0.292 1.384,0.533 2.171,0.724 0.787,0.191 1.489,0.285 2.106,0.285 0.921,0 1.382,-0.212 1.382,-0.636 0,-0.22 -0.129,-0.415 -0.386,-0.587 -0.258,-0.172 -1.007,-0.507 -2.248,-1.004 -1.132,-0.468 -1.923,-1 -2.373,-1.596 -0.449,-0.596 -0.675,-1.351 -0.675,-2.265 0,-1.155 0.442,-2.055 1.328,-2.698 0.885,-0.644 2.137,-0.965 3.755,-0.965 0.813,0 1.576,0.089 2.291,0.269 0.715,0.179 1.457,0.44 2.227,0.784 l -1.154,2.764 c -0.565,-0.256 -1.164,-0.474 -1.796,-0.652 -0.631,-0.18 -1.146,-0.269 -1.546,-0.269 -0.696,0 -1.044,0.172 -1.044,0.516 0,0.212 0.121,0.393 0.364,0.542 0.243,0.15 0.945,0.456 2.106,0.916 0.863,0.358 1.507,0.71 1.932,1.053 0.425,0.344 0.736,0.748 0.936,1.212 0.201,0.463 0.3,1.028 0.3,1.694 z"
     id="path4014"
     inkscape:connector-curvature="0"
     style="fill:#e6e6e5" /><path
     d="m 181.764,149.154 c 0.573,0 1.259,-0.143 2.058,-0.428 v 3.126 c -0.573,0.249 -1.119,0.426 -1.639,0.532 -0.519,0.105 -1.126,0.159 -1.822,0.159 -1.43,0 -2.46,-0.354 -3.092,-1.059 -0.631,-0.706 -0.946,-1.79 -0.946,-3.252 v -5.122 h -1.491 v -1.744 l 1.894,-1.349 1.1,-2.61 h 2.786 v 2.489 h 3.025 v 3.214 h -3.025 v 4.837 c -0.002,0.806 0.383,1.207 1.152,1.207 z"
     id="path4016"
     inkscape:connector-curvature="0"
     style="fill:#e6e6e5" /><path
     d="m 55.729,143.313 h 6.922 v 8.644 c -1.879,0.644 -3.945,0.966 -6.198,0.966 -2.472,0 -4.382,-0.717 -5.731,-2.15 -1.349,-1.433 -2.024,-3.478 -2.024,-6.132 0,-2.589 0.739,-4.604 2.216,-6.044 1.477,-1.44 3.547,-2.161 6.208,-2.161 1.009,0 1.962,0.096 2.858,0.285 0.896,0.19 1.676,0.432 2.342,0.725 l -1.371,3.4 c -1.156,-0.57 -2.424,-0.855 -3.807,-0.855 -1.265,0 -2.243,0.411 -2.934,1.233 -0.691,0.823 -1.037,1.998 -1.037,3.526 0,1.5 0.313,2.643 0.938,3.429 0.625,0.786 1.526,1.179 2.704,1.179 0.644,0 1.236,-0.062 1.777,-0.187 v -2.512 h -2.863 v -3.346 z"
     id="path4042"
     inkscape:connector-curvature="0"
     style="fill:#e6e6e5" /><path
     d="m 78.185,144.345 c 0,2.677 -0.737,4.738 -2.21,6.187 -1.473,1.449 -3.545,2.172 -6.214,2.172 h -5.188 v -16.037 h 5.551 c 2.574,0 4.561,0.658 5.961,1.975 1.4,1.317 2.1,3.216 2.1,5.703 z m -4.497,0.153 c 0,-1.47 -0.291,-2.56 -0.872,-3.269 -0.581,-0.709 -1.464,-1.064 -2.649,-1.064 h -1.262 v 8.984 h 0.965 c 1.316,0 2.282,-0.383 2.896,-1.146 0.614,-0.765 0.922,-1.933 0.922,-3.505 z"
     id="path4044"
     inkscape:connector-curvature="0"
     style="fill:#e6e6e5" /><path
     d="m 86.15,143.313 h 6.922 v 8.644 c -1.879,0.644 -3.945,0.966 -6.198,0.966 -2.472,0 -4.382,-0.717 -5.731,-2.15 -1.349,-1.433 -2.024,-3.478 -2.024,-6.132 0,-2.589 0.739,-4.604 2.216,-6.044 1.477,-1.44 3.547,-2.161 6.208,-2.161 1.009,0 1.962,0.096 2.858,0.285 0.896,0.19 1.676,0.432 2.342,0.725 l -1.371,3.4 c -1.156,-0.57 -2.424,-0.855 -3.807,-0.855 -1.265,0 -2.243,0.411 -2.934,1.233 -0.691,0.823 -1.037,1.998 -1.037,3.526 0,1.5 0.313,2.643 0.938,3.429 0.625,0.786 1.526,1.179 2.704,1.179 0.644,0 1.236,-0.062 1.777,-0.187 v -2.512 H 86.15 v -3.346 z"
     id="path4046"
     inkscape:connector-curvature="0"
     style="fill:#e6e6e5" /><path
     inkscape:connector-curvature="0"
     style="fill:url(#radialGradient5083)"
     id="path4053"
     d="m 9.068,187 h 6.791 c 1.607,0 3.604,-1.128 4.432,-2.511 l 5.72,-9.519 c 0.677,-1.396 0.653,-3.426 -0.119,-4.713 L 22.514,164.665 9.068,187 z" /><path
     inkscape:connector-curvature="0"
     style="fill:url(#radialGradient5080)"
     id="path4060"
     d="M 16.368,159.514 1.266,184.763 C 0.683,186.011 1.289,187 2.787,187 h 6.281 l 13.446,-22.335 -6.146,-10.173 c 0.829,1.378 0.829,3.638 0,5.022" /><path
     inkscape:connector-curvature="0"
     style="fill:url(#radialGradient5077)"
     id="path4067"
     d="m 2.787,127 c -1.613,0 -2.254,1.133 -1.424,2.511 l 24.529,40.745 c 0.772,1.288 0.795,3.317 0.119,4.713 L 31.974,165.044 9.072,127 H 2.787 z" /><path
     inkscape:connector-curvature="0"
     style="fill:url(#radialGradient5074)"
     id="path4074"
     d="m 9.072,127 22.903,38.045 3.321,-5.53 c 0.83,-1.385 0.83,-3.645 0,-5.023 L 20.292,129.511 C 19.463,128.133 17.467,127 15.86,127 H 9.072 z" /><text
     xml:space="preserve"
     style="font-size:22px;font-style:normal;font-variant:normal;font-weight:normal;font-stretch:normal;line-height:125%;letter-spacing:0px;word-spacing:0px;fill:#000000;fill-opacity:1;stroke:none;font-family:Roboto;-inkscape-font-specification:Roboto"
     x="88.5"
     y="60"
     id="text4084"
     sodipodi:linespacing="125%"><tspan
       sodipodi:role="line"
       id="tspan4086" /></text>
<text
     xml:space="preserve"
     style="font-size:40px;font-style:normal;font-variant:normal;font-weight:normal;font-stretch:normal;line-height:125%;letter-spacing:0px;word-spacing:0px;fill:#000000;fill-opacity:1;stroke:none;font-family:Roboto;-inkscape-font-specification:Roboto"
     x="76.5"
     y="57.5"
     id="text4088"
     sodipodi:linespacing="125%"><tspan
       sodipodi:role="line"
       id="tspan4090" /></text>
<text
     xml:space="preserve"
     style="font-size:22px;font-style:normal;font-variant:normal;font-weight:normal;font-stretch:normal;line-height:125%;letter-spacing:0px;word-spacing:0px;fill:#000000;fill-opacity:1;stroke:none;font-family:Roboto;-inkscape-font-specification:Sans"
     x="69"
     y="58"
     id="text4096"
     sodipodi:linespacing="125%"><tspan
       sodipodi:role="line"
       id="tspan4098" /></text>
<text
     xml:space="preserve"
     style="font-size:22px;font-style:normal;font-variant:normal;font-weight:bold;font-stretch:normal;line-height:125%;letter-spacing:0px;word-spacing:0px;fill:#4e4e4e;fill-opacity:1;stroke:none;font-family:Roboto;-inkscape-font-specification:Sans Bold"
     x="82"
     y="42"
     id="text4100"
     sodipodi:linespacing="125%"><tspan
       sodipodi:role="line"
       id="tspan4102" /></text>
<text
     xml:space="preserve"
     style="font-size:22px;font-style:normal;font-variant:normal;font-weight:bold;font-stretch:normal;line-height:125%;letter-spacing:0px;word-spacing:0px;fill:#4e4e4e;fill-opacity:1;stroke:none;font-family:Roboto;-inkscape-font-specification:Sans Bold"
     x="79"
     y="55"
     id="text4104"
     sodipodi:linespacing="125%"><tspan
       sodipodi:role="line"
       id="tspan4106" /></text>
<text
     xml:space="preserve"
     style="font-size:22px;font-style:normal;font-variant:normal;font-weight:normal;font-stretch:normal;line-height:125%;letter-spacing:0px;word-spacing:0px;fill:#4e4e4e;fill-opacity:1;stroke:none;font-family:Roboto;-inkscape-font-specification:Roboto"
     x="81"
     y="48"
     id="text4108"
     sodipodi:linespacing="125%"><tspan
       sodipodi:role="line"
       id="tspan4110"
       x="81"
       y="48" /></text>
<text
     xml:space="preserve"
     style="font-size:22px;font-style:normal;font-variant:normal;font-weight:normal;font-stretch:normal;line-height:125%;letter-spacing:-0.66000003px;word-spacing:0px;fill:#4e4e4e;fill-opacity:1;stroke:none;font-family:Roboto;-inkscape-font-specification:Roboto"
     x="48.280151"
     y="48.645912"
     id="text4056"
     sodipodi:linespacing="125%"><tspan
       sodipodi:role="line"
       id="tspan4058"
       x="48.280151"
       y="48.645912"
       style="font-weight:bold;-inkscape-font-specification:Roboto Bold">2015  Córdoba</tspan></text>
<text
     xml:space="preserve"
     style="font-size:22px;font-style:normal;font-variant:normal;font-weight:normal;font-stretch:normal;line-height:125%;letter-spacing:-0.66000003px;word-spacing:0px;fill:#4e4e4e;fill-opacity:1;stroke:none;font-family:Roboto;-inkscape-font-specification:Roboto"
     x="49.105194"
     y="110.67857"
     id="text4056-9"
     sodipodi:linespacing="125%"><tspan
       sodipodi:role="line"
       id="tspan4058-0"
       x="49.105194"
       y="110.67857"
       style="font-weight:bold;-inkscape-font-specification:Roboto Bold">2015 Córdoba</tspan></text>
<text
     xml:space="preserve"
     style="font-size:22px;font-style:normal;font-variant:normal;font-weight:normal;font-stretch:normal;line-height:125%;letter-spacing:-0.81px;word-spacing:0px;fill:#e6e6e5;fill-opacity:1;stroke:none;font-family:Roboto;-inkscape-font-specification:Roboto"
     x="48.933987"
     y="173.95483"
     id="text4056-7"
     sodipodi:linespacing="125%"><tspan
       sodipodi:role="line"
       id="tspan4058-3"
       x="48.933987"
       y="173.95483"
       style="font-weight:bold;fill:#e6e6e5;fill-opacity:1;-inkscape-font-specification:Roboto Bold;letter-spacing:-0.81px">2015  Córdoba</tspan></text>
</svg>